<svg xmlns="http://www.w3.org/2000/svg" viewBox="0 0 265.66 31.77"><defs><style>.cls-1{fill:#54565a;}.cls-2{fill:#6abf4b;}</style></defs><title>Asset 1</title><g id="Layer_2" data-name="Layer 2"><g id="logo"><path class="cls-1" d="M0,31.57v-7.9H12a8.62,8.62,0,0,0,2.69-.36,1.49,1.49,0,0,0,1.09-1.58,1.59,1.59,0,0,0-1-1.49,5.43,5.43,0,0,0-2.37-.5H8.67a6.55,6.55,0,0,1-3.34-.81,9.49,9.49,0,0,1-2.8-2.27A11.12,11.12,0,0,1,.64,13.47,9.2,9.2,0,0,1,0,9.89,11.87,11.87,0,0,1,.57,6.23,10.41,10.41,0,0,1,2.18,3.08,8.36,8.36,0,0,1,4.69.85,6.38,6.38,0,0,1,7.91,0H22.34V7.76H11.55l-.45,0a5.28,5.28,0,0,0-.63,0c-1.71,0-2.56.67-2.56,2a1.36,1.36,0,0,0,1,1.45,12.44,12.44,0,0,0,3.29.3h2.46a7.58,7.58,0,0,1,3.69.9,9.47,9.47,0,0,1,2.84,2.34A11,11,0,0,1,23,18a10.89,10.89,0,0,1,.66,3.69,11.75,11.75,0,0,1-.57,3.62,10.65,10.65,0,0,1-1.61,3.17A8.06,8.06,0,0,1,19,30.74a6.26,6.26,0,0,1-3.2.83Z"/><polygon class="cls-1" points="76.78 11.92 85.02 11.92 80.14 23.71 90.04 23.71 81.09 0.04 89.33 0.04 100.83 31.61 69.3 31.61 76.78 11.92"/><path class="cls-1" d="M118.25,11.92a1.31,1.31,0,0,0,1.13-.62,2.4,2.4,0,0,0,0-2.74,1.31,1.31,0,0,0-1.13-.62h-14.2V.08h14.2a9.17,9.17,0,0,1,3.67.76,9.31,9.31,0,0,1,3,2.09,10.16,10.16,0,0,1,2,3.12,10,10,0,0,1,.75,3.88A8.67,8.67,0,0,1,122.18,18l5.53,13.59h-8.89l-4.55-11.83V11.92Zm-14.2,0h7.85V31.61h-7.85Z"/><path class="cls-1" d="M130.51.08h23.62V7.94H130.51Zm15.76,31.53h-7.91V11.92h7.91Z"/><path class="cls-2" d="M157.49,23.71h14.2a1.39,1.39,0,0,0,1.16-.6,2.15,2.15,0,0,0,.45-1.34,2.28,2.28,0,0,0-.45-1.38,1.38,1.38,0,0,0-1.16-.61h-14.2V11.87h14.2a1.38,1.38,0,0,0,1.16-.59,2.17,2.17,0,0,0,.45-1.35,2.27,2.27,0,0,0-.45-1.37,1.39,1.39,0,0,0-1.16-.62h-14.2V.08h14.2a8.58,8.58,0,0,1,3.67.81,10,10,0,0,1,3,2.15,10.48,10.48,0,0,1,2,3.13,9.57,9.57,0,0,1,.76,3.76,10.39,10.39,0,0,1-.43,3.13,9.16,9.16,0,0,1-1.51,2.79,9.19,9.19,0,0,1,1.51,2.77,10.3,10.3,0,0,1,.43,3.15,9.57,9.57,0,0,1-.76,3.76,10.44,10.44,0,0,1-2,3.12,9.88,9.88,0,0,1-3,2.16,8.72,8.72,0,0,1-3.67.8h-14.2Z"/><path class="cls-2" d="M193.82,30.36a16.17,16.17,0,0,1-5-3.43,16.74,16.74,0,0,1-3.4-5,14.82,14.82,0,0,1-1.26-6.06,15,15,0,0,1,1.26-6.09,16.14,16.14,0,0,1,8.42-8.42,15.32,15.32,0,0,1,12.17,0,16.51,16.51,0,0,1,5,3.38,15.8,15.8,0,0,1,3.41,5,15,15,0,0,1,1.26,6.13,15,15,0,0,1-1.26,6.08A16.2,16.2,0,0,1,206,30.36a15.44,15.44,0,0,1-12.17,0m9.11-7.29a8.36,8.36,0,0,0,2.49-1.71,8.23,8.23,0,0,0,1.7-2.48,7.26,7.26,0,0,0,.64-3,7.74,7.74,0,0,0-.61-3,8.44,8.44,0,0,0-1.68-2.51A8.08,8.08,0,0,0,203,8.58a7.59,7.59,0,0,0-6.1,0,8,8,0,0,0-2.51,1.73,8.5,8.5,0,0,0-1.7,2.51,7.49,7.49,0,0,0,0,6.06,8.23,8.23,0,0,0,1.7,2.48,8.33,8.33,0,0,0,2.51,1.71,7.55,7.55,0,0,0,3.05.64,7.38,7.38,0,0,0,3-.64"/><rect class="cls-1" x="42.38" y="11.98" width="7.86" height="19.69"/><rect class="cls-1" x="58.19" y="15.79" width="7.86" height="15.88"/><rect class="cls-1" x="26.57" y="15.79" width="7.95" height="15.88"/><path class="cls-2" d="M57.18,11c0,.06.09.13.14.2H66a8.5,8.5,0,0,0-1.72-4.8,13.25,13.25,0,0,0-4.62-3.64,23.55,23.55,0,0,0-6.34-2,40.28,40.28,0,0,0-7-.62A43.79,43.79,0,0,0,41.67.4a31.83,31.83,0,0,0-4.57.85A23.56,23.56,0,0,0,33,2.77,13.78,13.78,0,0,0,29.65,5,9.71,9.71,0,0,0,27.4,8.05a8.78,8.78,0,0,0-.75,3.16h8.72C36.91,9.08,40.56,8,46.36,8a36.4,36.4,0,0,1,4.31.26,15.53,15.53,0,0,1,3.81.92A6.87,6.87,0,0,1,57.18,11"/><rect class="cls-2" x="235.46" y="5.5" width="7.86" height="14.62"/><path class="cls-2" d="M227.42,18q0,5.93,11.79,5.92T251.05,18V.25H259V19.94a8.65,8.65,0,0,1-1.77,5.52,13.44,13.44,0,0,1-4.59,3.64,24,24,0,0,1-6.35,2,39.86,39.86,0,0,1-7,.63,39.44,39.44,0,0,1-7-.63,23.45,23.45,0,0,1-6.32-2.06,13.44,13.44,0,0,1-4.59-3.67,8.52,8.52,0,0,1-1.78-5.47V.25h7.9Z"/><path class="cls-2" d="M261.5,2.25a2.33,2.33,0,0,1,.08-.59,2.18,2.18,0,0,1,.21-.52,2.44,2.44,0,0,1,.32-.45,2.18,2.18,0,0,1,.42-.33,2.24,2.24,0,0,1,.5-.22,2,2,0,0,1,.55-.07,2,2,0,0,1,.55.07,2.05,2.05,0,0,1,.5.22,1.7,1.7,0,0,1,.42.33,2.09,2.09,0,0,1,.33.45,2.18,2.18,0,0,1,.21.52,2.32,2.32,0,0,1,.07.59,2.25,2.25,0,0,1-.16.87,2.21,2.21,0,0,1-.45.7,2.18,2.18,0,0,1-.66.46,2,2,0,0,1-.81.17,2,2,0,0,1-.55-.08,2.21,2.21,0,0,1-.5-.21,2.72,2.72,0,0,1-.42-.34,2.44,2.44,0,0,1-.32-.45,2.18,2.18,0,0,1-.21-.52A2.35,2.35,0,0,1,261.5,2.25Zm.36,0A2.2,2.2,0,0,0,262,3a2.05,2.05,0,0,0,.37.58,2,2,0,0,0,.55.39,1.67,1.67,0,0,0,.67.14A1.77,1.77,0,0,0,264,4a1.5,1.5,0,0,0,.41-.18,1.87,1.87,0,0,0,.35-.28,2.51,2.51,0,0,0,.27-.37,2.11,2.11,0,0,0,.17-.44,2,2,0,0,0,.06-.5,2,2,0,0,0-.06-.49,2.11,2.11,0,0,0-.17-.44A2.42,2.42,0,0,0,264.8,1a1.54,1.54,0,0,0-.35-.28A1.5,1.5,0,0,0,264,.5a1.43,1.43,0,0,0-.46-.07,1.67,1.67,0,0,0-.67.14,1.63,1.63,0,0,0-.55.39,1.87,1.87,0,0,0-.37.57A2.18,2.18,0,0,0,261.86,2.25Zm1.3.23v1h-.44V1h.82a1.48,1.48,0,0,1,.39.05,1.05,1.05,0,0,1,.3.15.76.76,0,0,1,.2.24.9.9,0,0,1,.06.34.47.47,0,0,1-.08.29.65.65,0,0,1-.25.21.52.52,0,0,1,.25.26.87.87,0,0,1,.08.37v.37c0,.07,0,.12,0,.17v0h-.45a.2.2,0,0,1,0-.09.49.49,0,0,1,0-.12.49.49,0,0,1,0-.12V2.88a.43.43,0,0,0-.09-.3.44.44,0,0,0-.33-.1Zm0-.4h.4a.62.62,0,0,0,.19,0,.44.44,0,0,0,.16-.06.27.27,0,0,0,.1-.11.23.23,0,0,0,0-.14.47.47,0,0,0,0-.18.27.27,0,0,0-.09-.12.48.48,0,0,0-.16-.07l-.24,0h-.38Z"/></g></g></svg>